<?xml version="1.0" encoding="UTF-8" standalone="no"?>
<!DOCTYPE svg PUBLIC "-//W3C//DTD SVG 1.1//EN" "http://www.w3.org/Graphics/SVG/1.1/DTD/svg11.dtd">
<svg width="100%" height="100%" viewBox="0 0 403 403" version="1.1" xmlns="http://www.w3.org/2000/svg" xmlns:xlink="http://www.w3.org/1999/xlink" xml:space="preserve" xmlns:serif="http://www.serif.com/" style="fill-rule:evenodd;clip-rule:evenodd;stroke-linecap:round;stroke-linejoin:round;stroke-miterlimit:1.5;">
    <g transform="matrix(1,0,0,1,-439.671,-199.671)">
        <path d="M840.071,381.062C840.071,381.062 835.043,348.881 829.419,333.713C823.582,317.969 815.457,300.89 805.046,286.598C793.986,271.415 778.558,255.677 763.061,242.614C743.009,225.713 704.848,209.88 680.108,204.877C659.552,200.72 636.103,199.647 617.37,202.451C600.813,204.93 584.035,208.027 568.636,214.597C551.447,221.931 530.28,233.279 514.232,246.458C498.183,259.637 483.871,276.07 472.346,293.67C459.305,313.588 447.208,344.609 443.689,368.578C440.473,390.487 441.352,413.042 443.935,435.01C446.968,460.805 464.271,496.832 478.298,517.252C489.152,533.052 504.121,547.49 518.1,558.761C531.393,569.479 546.32,578.526 562.171,584.876C579.366,591.764 601.127,598.11 621.269,600.091L621.242,600.089L511.888,490.734L511.905,490.727C511.668,491.048 500.738,480.371 498.019,474.224C495.036,467.482 492.555,459.007 492.333,451.06C491.76,430.544 492.871,373.754 492.333,351.06C492.02,337.875 498.566,324.778 506.97,315.726C515.078,306.993 529.575,301.29 542.333,301.06C581.819,300.35 706.299,301.45 743.621,301.205C751.659,301.153 760.65,305.709 766.508,308.801C771.354,311.359 778.766,319.757 778.766,319.757" style="fill:rgb(70,130,180);fill-opacity:0.752941;"/>
        <path d="M621.269,600.091C621.269,600.091 638.682,601.449 647.384,600.962C658.34,600.349 674.455,598.69 687.659,595.593C704.812,591.569 729.734,581.868 747.695,570.253C765.682,558.621 781.868,544.457 795.435,528.164C809.746,510.979 823.449,485.452 829.882,467.099C835.082,452.266 838.373,435.398 840.071,421.058C841.639,407.819 840.071,381.062 840.071,381.062L815.95,356.941L810.852,351.843L778.766,319.757C782.035,324.332 785.417,330.1 787.254,335.317C789.019,340.33 789.671,345.746 789.787,351.06C790.209,370.351 790.632,430.735 789.787,451.06C789.475,458.564 787.077,467.203 784.715,473.013C782.733,477.889 779.459,482.321 775.617,485.92C771.291,489.973 764.73,494.807 758.758,497.33C752.822,499.838 746.231,500.949 739.787,501.06C703.716,501.682 578.166,501.588 542.333,501.06C536.392,500.973 529.864,499.614 524.792,497.892C520.138,496.311 515.876,493.972 511.905,490.727C511.905,490.727 621.269,600.091 621.269,600.091" style="fill:rgb(70,130,180);"/>
        <g transform="matrix(1.00533,0,0,1.00533,28.5732,-53.0414)">
            <circle cx="609.24" cy="451.694" r="198.94" style="fill:none;stroke:white;stroke-width:2.76px;"/>
        </g>
        <g transform="matrix(1.48727,0,0,1,-163.643,101.06)">
            <path d="M641.06,250C641.06,222.404 625.996,200 607.441,200L474.679,200C456.124,200 441.06,222.404 441.06,250L441.06,350C441.06,377.596 456.124,400 474.679,400L607.441,400C625.996,400 641.06,377.596 641.06,350L641.06,250Z" style="fill:none;"/>
        </g>
        <g transform="matrix(0.954203,0,0,0.939679,132.288,12.5868)">
            <rect x="520.965" y="373.328" width="24.452" height="24.452" style="stroke:black;stroke-width:2.93px;"/>
        </g>
        <g transform="matrix(0.954203,0,0,0.939679,98.6768,12.5868)">
            <rect x="520.965" y="373.328" width="24.452" height="24.452" style="stroke:black;stroke-width:2.93px;"/>
        </g>
        <g transform="matrix(0.954203,0,0,0.939679,65.0656,12.5868)">
            <rect x="520.965" y="373.328" width="24.452" height="24.452" style="stroke:black;stroke-width:2.93px;"/>
        </g>
        <g transform="matrix(0.954203,0,0,0.939679,233.122,12.5868)">
            <rect x="520.965" y="373.328" width="24.452" height="24.452" style="stroke:black;stroke-width:2.93px;"/>
        </g>
        <g transform="matrix(0.954203,0,0,0.939679,199.511,12.5868)">
            <rect x="520.965" y="373.328" width="24.452" height="24.452" style="stroke:black;stroke-width:2.93px;"/>
        </g>
        <g transform="matrix(0.954203,0,0,0.939679,165.899,12.5868)">
            <rect x="520.965" y="373.328" width="24.452" height="24.452" style="stroke:black;stroke-width:2.93px;"/>
        </g>
        <g transform="matrix(0.954203,0,0,0.939679,98.6768,46.5944)">
            <rect x="520.965" y="373.328" width="24.452" height="24.452" style="stroke:black;stroke-width:2.93px;"/>
        </g>
        <g transform="matrix(0.954203,0,0,0.939679,65.0656,46.5944)">
            <rect x="520.965" y="373.328" width="24.452" height="24.452" style="stroke:black;stroke-width:2.93px;"/>
        </g>
        <g transform="matrix(0.954203,0,0,0.939679,31.4543,46.5944)">
            <rect x="520.965" y="373.328" width="24.452" height="24.452" style="stroke:black;stroke-width:2.93px;"/>
        </g>
        <g transform="matrix(0.954203,0,0,0.939679,199.511,46.5944)">
            <rect x="520.965" y="373.328" width="24.452" height="24.452" style="stroke:black;stroke-width:2.93px;"/>
        </g>
        <g transform="matrix(0.954203,0,0,0.939679,233.122,46.5944)">
            <rect x="520.965" y="373.328" width="24.452" height="24.452" style="stroke:black;stroke-width:2.93px;"/>
        </g>
        <g transform="matrix(0.954203,0,0,0.939679,165.899,46.5944)">
            <rect x="520.965" y="373.328" width="24.452" height="24.452" style="stroke:black;stroke-width:2.93px;"/>
        </g>
        <g transform="matrix(0.954203,0,0,0.939679,132.288,46.5944)">
            <rect x="520.965" y="373.328" width="24.452" height="24.452" style="stroke:black;stroke-width:2.93px;"/>
        </g>
        <g transform="matrix(0.954203,0,0,0.939679,98.6768,80.602)">
            <rect x="520.965" y="373.328" width="24.452" height="24.452" style="stroke:black;stroke-width:2.93px;"/>
        </g>
        <g transform="matrix(0.954203,0,0,0.939679,65.0656,80.602)">
            <rect x="520.965" y="373.328" width="24.452" height="24.452" style="stroke:black;stroke-width:2.93px;"/>
        </g>
        <g transform="matrix(0.954203,0,0,0.939679,31.4543,80.602)">
            <rect x="520.965" y="373.328" width="24.452" height="24.452" style="stroke:black;stroke-width:2.93px;"/>
        </g>
        <g transform="matrix(0.954203,0,0,0.939679,233.122,80.602)">
            <rect x="520.965" y="373.328" width="24.452" height="24.452" style="stroke:black;stroke-width:2.93px;"/>
        </g>
        <g transform="matrix(0.954203,0,0,0.939679,199.511,80.602)">
            <rect x="520.965" y="373.328" width="24.452" height="24.452" style="stroke:black;stroke-width:2.93px;"/>
        </g>
        <g transform="matrix(0.954203,0,0,0.939679,165.899,80.602)">
            <rect x="520.965" y="373.328" width="24.452" height="24.452" style="stroke:black;stroke-width:2.93px;"/>
        </g>
        <g transform="matrix(0.954203,0,0,0.939679,132.288,80.602)">
            <rect x="520.965" y="373.328" width="24.452" height="24.452" style="stroke:black;stroke-width:2.93px;"/>
        </g>
        <g transform="matrix(0.954203,0,0,0.939679,98.6768,114.61)">
            <rect x="520.965" y="373.328" width="24.452" height="24.452" style="stroke:black;stroke-width:2.93px;"/>
        </g>
        <g transform="matrix(0.954203,0,0,0.939679,65.0656,114.61)">
            <rect x="520.965" y="373.328" width="24.452" height="24.452" style="stroke:black;stroke-width:2.93px;"/>
        </g>
        <g transform="matrix(0.954203,0,0,0.939679,199.511,114.61)">
            <rect x="520.965" y="373.328" width="24.452" height="24.452" style="stroke:black;stroke-width:2.93px;"/>
        </g>
        <g transform="matrix(0.954203,0,0,0.939679,165.899,114.61)">
            <rect x="520.965" y="373.328" width="24.452" height="24.452" style="stroke:black;stroke-width:2.93px;"/>
        </g>
        <g transform="matrix(0.954203,0,0,0.939679,132.288,114.61)">
            <rect x="520.965" y="373.328" width="24.452" height="24.452" style="stroke:black;stroke-width:2.93px;"/>
        </g>
        <g transform="matrix(0.954203,0,0,0.939679,31.4543,114.61)">
            <rect x="520.965" y="373.328" width="24.452" height="24.452" style="stroke:black;stroke-width:2.93px;"/>
        </g>
        <path d="M492.333,351.06L789.787,351.06C789.787,351.06 790.025,345.743 788.413,339.38C786.625,332.321 782.789,323.957 778.765,319.756C775.849,316.711 772.641,313.043 768.527,310.151C761.378,305.126 752.36,301.546 743.621,301.205C704.894,299.695 582.436,299.576 542.333,301.06C535.184,301.325 526.942,303.045 520.11,306.438C516.854,308.055 513.706,309.819 511.101,311.947C508.654,313.947 506.647,316.081 504.774,318.237C501.651,321.829 497.662,327.684 495.628,333.659C494.298,337.564 493.295,340.962 492.818,344.077C492.23,347.912 492.333,351.06 492.333,351.06"/>
    </g>
</svg>
