<?xml version="1.0" encoding="UTF-8" standalone="no"?>
<!DOCTYPE svg PUBLIC "-//W3C//DTD SVG 1.1//EN" "http://www.w3.org/Graphics/SVG/1.1/DTD/svg11.dtd">
<svg width="100%" height="100%" viewBox="0 0 201 201" version="1.1" xmlns="http://www.w3.org/2000/svg" xmlns:xlink="http://www.w3.org/1999/xlink" xml:space="preserve" xmlns:serif="http://www.serif.com/" style="fill-rule:evenodd;clip-rule:evenodd;stroke-linecap:round;stroke-linejoin:round;stroke-miterlimit:1.5;">
    <g transform="matrix(1,0,0,1,-539.5,-299.5)">
        <path d="M621.852,498.354L606.183,482.685L590,466.502L590,333.5L690,333.5L738.355,381.855C737.472,374.631 734.692,367.801 731.958,360.673C728.443,351.51 722.508,342.614 716.359,335.456C705.426,322.729 689.367,311.422 672.759,305.498C655.684,299.408 632.149,298.066 614.299,303.339C596.555,308.581 577.439,318.633 565.34,333.5C559.233,341.004 551.76,351.513 547.312,362.421C542.741,373.632 540.302,385.188 540,394.638C539.757,402.223 540.383,410.031 541.398,416.742C542.915,426.777 546.359,436.098 550.397,444.42C557.43,458.912 569.991,473.067 582.15,481.556C589.148,486.442 597.732,491.29 605.927,494.036C611.512,495.907 616.521,496.908 621.854,498.354" style="fill:rgb(70,130,180);fill-opacity:0.745098;"/>
        <path d="M590,466.5L621.855,498.355C621.855,498.355 631.86,500.502 645.19,499.867C653.01,499.495 661.974,497.716 670.735,495.18C682.996,491.631 694.901,484.261 703.758,477.017C708.31,473.294 711.764,469.395 714.66,466.5C716.733,464.427 718.684,461.846 720.759,458.956C723.225,455.522 725.801,451.635 728.061,447.395C732.158,439.708 735.735,431.006 737.509,422.259C738.994,414.939 739.933,407.669 740,401.356C740.119,390.078 738.355,381.855 738.355,381.855L690,333.5L690,466.5L590,466.5" style="fill:rgb(70,130,180);"/>
        <g transform="matrix(0.589973,0,0,0.589973,253.651,161.617)">
            <circle cx="654.858" cy="404.057" r="169.499" style="fill:none;stroke:white;stroke-width:1.69px;"/>
        </g>
        <g transform="matrix(1.11498,0,0,1.48293,-123.59,-111.379)">
            <rect x="640" y="300" width="89.687" height="89.687" style="fill:none;"/>
        </g>
        <g>
            <g transform="matrix(1.59997,0,0,1,-316.026,1)">
                <path d="M597.526,340.741L622.526,340.741" style="fill:none;stroke:black;stroke-width:1.25px;"/>
            </g>
            <g transform="matrix(1.59997,0,0,1,-316.026,5)">
                <path d="M597.526,340.741L622.526,340.741" style="fill:none;stroke:black;stroke-width:1.25px;"/>
            </g>
            <g transform="matrix(1.59997,0,0,1,-316.026,9)">
                <path d="M597.526,340.741L622.526,340.741" style="fill:none;stroke:black;stroke-width:1.25px;"/>
            </g>
            <g transform="matrix(1.59997,0,0,1,-316.026,13)">
                <path d="M597.526,340.741L622.526,340.741" style="fill:none;stroke:black;stroke-width:1.25px;"/>
            </g>
            <g transform="matrix(1.59997,0,0,1,-316.026,17)">
                <path d="M597.526,340.741L622.526,340.741" style="fill:none;stroke:black;stroke-width:1.25px;"/>
            </g>
            <g transform="matrix(1.59997,0,0,1,-316.026,21)">
                <path d="M597.526,340.741L622.526,340.741" style="fill:none;stroke:black;stroke-width:1.25px;"/>
            </g>
            <g transform="matrix(1.59997,0,0,1,-316.026,25)">
                <path d="M597.526,340.741L622.526,340.741" style="fill:none;stroke:black;stroke-width:1.25px;"/>
            </g>
        </g>
        <g transform="matrix(1.2503,0,0,1,-170.202,34.2594)">
            <g transform="matrix(1.59997,0,0,1,-316.026,1)">
                <path d="M597.526,340.741L622.526,340.741" style="fill:none;stroke:black;stroke-width:1.05px;"/>
            </g>
            <g transform="matrix(1.59997,0,0,1,-316.026,5)">
                <path d="M597.526,340.741L622.526,340.741" style="fill:none;stroke:black;stroke-width:1.05px;"/>
            </g>
            <g transform="matrix(1.59997,0,0,1,-316.026,9)">
                <path d="M597.526,340.741L622.526,340.741" style="fill:none;stroke:black;stroke-width:1.05px;"/>
            </g>
            <g transform="matrix(1.59997,0,0,1,-316.026,13)">
                <path d="M597.526,340.741L622.526,340.741" style="fill:none;stroke:black;stroke-width:1.05px;"/>
            </g>
            <g transform="matrix(1.59997,0,0,1,-316.026,17)">
                <path d="M597.526,340.741L622.526,340.741" style="fill:none;stroke:black;stroke-width:1.05px;"/>
            </g>
            <g transform="matrix(1.59997,0,0,1,-316.026,21)">
                <path d="M597.526,340.741L622.526,340.741" style="fill:none;stroke:black;stroke-width:1.05px;"/>
            </g>
            <g transform="matrix(1.59997,0,0,1,-316.026,25)">
                <path d="M597.526,340.741L622.526,340.741" style="fill:none;stroke:black;stroke-width:1.05px;"/>
            </g>
        </g>
        <g transform="matrix(1.2503,0,0,1,-202.669,68.5189)">
            <g transform="matrix(1.59997,0,0,1,-316.026,1)">
                <path d="M597.526,340.741L622.526,340.741" style="fill:none;stroke:black;stroke-width:1.05px;"/>
            </g>
            <g transform="matrix(1.59997,0,0,1,-316.026,5)">
                <path d="M597.526,340.741L622.526,340.741" style="fill:none;stroke:black;stroke-width:1.05px;"/>
            </g>
            <g transform="matrix(1.59997,0,0,1,-316.026,9)">
                <path d="M597.526,340.741L622.526,340.741" style="fill:none;stroke:black;stroke-width:1.05px;"/>
            </g>
            <g transform="matrix(1.59997,0,0,1,-316.026,13)">
                <path d="M597.526,340.741L622.526,340.741" style="fill:none;stroke:black;stroke-width:1.05px;"/>
            </g>
            <g transform="matrix(1.59997,0,0,1,-316.026,17)">
                <path d="M597.526,340.741L622.526,340.741" style="fill:none;stroke:black;stroke-width:1.05px;"/>
            </g>
            <g transform="matrix(1.59997,0,0,1,-316.026,21)">
                <path d="M597.526,340.741L622.526,340.741" style="fill:none;stroke:black;stroke-width:1.05px;"/>
            </g>
            <g transform="matrix(1.59997,0,0,1,-316.026,25)">
                <path d="M597.526,340.741L622.526,340.741" style="fill:none;stroke:black;stroke-width:1.05px;"/>
            </g>
        </g>
        <g transform="matrix(0.625011,0,0,1,197.52,34.2594)">
            <g transform="matrix(1.59997,0,0,1,-316.026,1)">
                <path d="M597.526,340.741L622.526,340.741" style="fill:none;stroke:black;stroke-width:1.67px;"/>
            </g>
            <g transform="matrix(1.59997,0,0,1,-316.026,5)">
                <path d="M597.526,340.741L622.526,340.741" style="fill:none;stroke:black;stroke-width:1.67px;"/>
            </g>
            <g transform="matrix(1.59997,0,0,1,-316.026,9)">
                <path d="M597.526,340.741L622.526,340.741" style="fill:none;stroke:black;stroke-width:1.67px;"/>
            </g>
            <g transform="matrix(1.59997,0,0,1,-316.026,13)">
                <path d="M597.526,340.741L622.526,340.741" style="fill:none;stroke:black;stroke-width:1.67px;"/>
            </g>
            <g transform="matrix(1.59997,0,0,1,-316.026,17)">
                <path d="M597.526,340.741L622.526,340.741" style="fill:none;stroke:black;stroke-width:1.67px;"/>
            </g>
            <g transform="matrix(1.59997,0,0,1,-316.026,21)">
                <path d="M597.526,340.741L622.526,340.741" style="fill:none;stroke:black;stroke-width:1.67px;"/>
            </g>
            <g transform="matrix(1.59997,0,0,1,-316.026,25)">
                <path d="M597.526,340.741L622.526,340.741" style="fill:none;stroke:black;stroke-width:1.67px;"/>
            </g>
        </g>
        <g transform="matrix(0.625011,0,0,1,254.993,68.5189)">
            <g transform="matrix(1.59997,0,0,1,-316.026,1)">
                <path d="M597.526,340.741L622.526,340.741" style="fill:none;stroke:black;stroke-width:1.67px;"/>
            </g>
            <g transform="matrix(1.59997,0,0,1,-316.026,5)">
                <path d="M597.526,340.741L622.526,340.741" style="fill:none;stroke:black;stroke-width:1.67px;"/>
            </g>
            <g transform="matrix(1.59997,0,0,1,-316.026,9)">
                <path d="M597.526,340.741L622.526,340.741" style="fill:none;stroke:black;stroke-width:1.67px;"/>
            </g>
            <g transform="matrix(1.59997,0,0,1,-316.026,13)">
                <path d="M597.526,340.741L622.526,340.741" style="fill:none;stroke:black;stroke-width:1.67px;"/>
            </g>
            <g transform="matrix(1.59997,0,0,1,-316.026,17)">
                <path d="M597.526,340.741L622.526,340.741" style="fill:none;stroke:black;stroke-width:1.67px;"/>
            </g>
            <g transform="matrix(1.59997,0,0,1,-316.026,21)">
                <path d="M597.526,340.741L622.526,340.741" style="fill:none;stroke:black;stroke-width:1.67px;"/>
            </g>
            <g transform="matrix(1.59997,0,0,1,-316.026,25)">
                <path d="M597.526,340.741L622.526,340.741" style="fill:none;stroke:black;stroke-width:1.67px;"/>
            </g>
        </g>
        <path d="M690,333.5L738.355,381.855" style="fill:none;"/>
        <path d="M590,466.5L621.855,498.355" style="fill:none;"/>
        <path d="M622.526,340.741L622.526,365.741L597.526,365.741L597.526,340.741L622.526,340.741ZM610.026,340.741L612.833,349.378L621.915,349.378L614.567,354.716L617.374,363.353L610.026,358.015L602.679,363.353L605.485,354.716L598.138,349.378L607.22,349.378L610.026,340.741Z" style="stroke:black;stroke-width:2.78px;"/>
    </g>
</svg>
